<svg width="919" height="496" viewBox="0 0 919 496" fill="none" xmlns="http://www.w3.org/2000/svg">
<path d="M459.467 0C443.653 63.3291 394.2 112.785 330.873 128.599C394.2 144.413 443.653 193.869 459.467 257.198C475.281 193.869 524.735 144.413 588.061 128.599C524.735 112.785 475.281 63.3291 459.467 0Z" fill="#161515"/>
<path d="M918.709 128.605L594.384 452.942C566.854 480.473 529.476 496 490.445 496H428.484C389.524 496 352.146 480.545 324.544 452.942L0.219116 128.605H183.946L326.341 399.101C351.787 447.407 401.816 477.598 456.373 477.598H462.627C517.184 477.598 567.285 447.335 592.659 399.101L735.054 128.605H918.781H918.709Z" fill="#161515"/>
</svg>
